<svg width="20" height="20" viewBox="0 0 20 20" fill="none" xmlns="http://www.w3.org/2000/svg">
<path d="M8.33317 3.33301L6.6665 4.99967" stroke="#D66355" stroke-width="1.66667" stroke-linecap="round" stroke-linejoin="round"/>
<path d="M14.1665 15.833V17.4997" stroke="#D66355" stroke-width="1.66667" stroke-linecap="round" stroke-linejoin="round"/>
<path d="M1.66675 10H18.3334" stroke="#D66355" stroke-width="1.66667" stroke-linecap="round" stroke-linejoin="round"/>
<path d="M5.8335 15.833V17.4997" stroke="#D66355" stroke-width="1.66667" stroke-linecap="round" stroke-linejoin="round"/>
<path d="M7.49992 4.16683L6.35075 3.01766C6.10976 2.77555 5.80378 2.60846 5.46982 2.53661C5.13586 2.46476 4.78823 2.49122 4.469 2.6128C4.14976 2.73437 3.87259 2.94585 3.67103 3.22165C3.46947 3.49745 3.35214 3.82575 3.33325 4.16683V14.1668C3.33325 14.6089 3.50885 15.0328 3.82141 15.3453C4.13397 15.6579 4.55789 15.8335 4.99992 15.8335H14.9999C15.4419 15.8335 15.8659 15.6579 16.1784 15.3453C16.491 15.0328 16.6666 14.6089 16.6666 14.1668V10.0002" stroke="#D66355" stroke-width="1.66667" stroke-linecap="round" stroke-linejoin="round"/>
</svg>
