<svg width="20" height="20" viewBox="0 0 20 20" fill="none" xmlns="http://www.w3.org/2000/svg">
<path d="M1.6665 16.6663V9.99967C1.6665 9.55765 1.8421 9.13372 2.15466 8.82116C2.46722 8.5086 2.89114 8.33301 3.33317 8.33301H16.6665C17.1085 8.33301 17.5325 8.5086 17.845 8.82116C18.1576 9.13372 18.3332 9.55765 18.3332 9.99967V16.6663" stroke="#D66355" stroke-width="1.66667" stroke-linecap="round" stroke-linejoin="round"/>
<path d="M3.3335 8.33301V4.99967C3.3335 4.55765 3.50909 4.13372 3.82165 3.82116C4.13421 3.5086 4.55814 3.33301 5.00016 3.33301H15.0002C15.4422 3.33301 15.8661 3.5086 16.1787 3.82116C16.4912 4.13372 16.6668 4.55765 16.6668 4.99967V8.33301" stroke="#D66355" stroke-width="1.66667" stroke-linecap="round" stroke-linejoin="round"/>
<path d="M10 3.33301V8.33301" stroke="#D66355" stroke-width="1.66667" stroke-linecap="round" stroke-linejoin="round"/>
<path d="M1.66675 15H18.3334" stroke="#D66355" stroke-width="1.66667" stroke-linecap="round" stroke-linejoin="round"/>
</svg>
