<svg width="19" height="19" viewBox="0 0 19 19" fill="none" xmlns="http://www.w3.org/2000/svg">
<path d="M1.65966 12.7849C1.78219 13.094 1.80947 13.4327 1.73799 13.7574L0.850495 16.4991C0.821898 16.6381 0.829292 16.7822 0.871974 16.9175C0.914657 17.0529 0.991213 17.1751 1.09438 17.2726C1.19755 17.3701 1.32392 17.4397 1.46149 17.4746C1.59907 17.5096 1.7433 17.5088 1.88049 17.4724L4.72466 16.6407C5.03109 16.58 5.34843 16.6065 5.64049 16.7174C7.41998 17.5484 9.4358 17.7242 11.3323 17.2138C13.2288 16.7034 14.8841 15.5396 16.0061 13.9277C17.1281 12.3158 17.6448 10.3594 17.4649 8.4037C17.2851 6.44798 16.4202 4.61863 15.023 3.2384C13.6259 1.85818 11.7861 1.01577 9.82831 0.859822C7.87055 0.70387 5.92061 1.24439 4.32253 2.38602C2.72445 3.52765 1.58094 5.19703 1.09374 7.09961C0.606541 9.00218 0.806969 11.0157 1.65966 12.7849Z" stroke="white" stroke-width="1.66667" stroke-linecap="round" stroke-linejoin="round"/>
</svg>
