<svg width="20" height="20" viewBox="0 0 20 20" fill="none" xmlns="http://www.w3.org/2000/svg">
<path d="M5.82178 3.08315C8.15261 5.66232 11.9968 0.0964839 14.2718 2.11648C15.5801 3.27815 15.1659 5.84482 13.4676 7.51648" stroke="#D66355" stroke-width="1.5" stroke-linecap="round"/>
<path d="M11.4918 11.653C11.5068 11.3739 11.5843 10.8639 11.161 10.4764C10.9992 10.3351 10.8104 10.2282 10.606 10.1622C9.73266 9.85388 8.65932 10.8847 9.41849 11.8289C9.82682 12.3355 10.141 12.4914 10.1118 13.0672C10.091 13.4722 9.69266 13.8955 9.16849 14.0572C8.71266 14.1972 8.21016 14.0114 7.89266 13.6564C7.50432 13.223 7.54266 12.8139 7.54016 12.6355M11.161 10.4772L11.6393 9.99805M7.92682 13.7105L7.47266 14.1647" stroke="#D66355" stroke-width="1.5" stroke-linecap="round" stroke-linejoin="round"/>
<path d="M15.2276 5.52736C15.9984 5.6757 16.1717 6.16236 16.4017 7.51403C16.6092 8.7307 16.6676 10.1915 16.6676 10.814C16.6465 11.0426 16.5534 11.2585 16.4017 11.4307C14.7892 13.1207 11.5884 16.3124 9.97341 17.8974C9.34007 18.464 8.38341 18.4765 7.71007 17.9565C6.33257 16.7174 5.00924 15.3165 3.71257 14.0524C3.19174 13.3807 3.20424 12.4274 3.77091 11.7949C5.48007 10.0224 8.57257 6.9882 10.3176 5.31153C10.4926 5.16153 10.7076 5.0682 10.9367 5.04736C11.3284 5.04736 12.0001 5.09986 12.6551 5.13736" stroke="#D66355" stroke-width="1.5" stroke-linecap="round"/>
</svg>
