<svg width="20" height="20" viewBox="0 0 20 20" fill="none" xmlns="http://www.w3.org/2000/svg">
<path d="M10 20C15.5139 20 20 15.5139 20 10C20 4.48609 15.5139 0 10 0C4.48609 0 0 4.48609 0 10C0 15.5139 4.48609 20 10 20ZM10 1.25C14.8248 1.25 18.75 5.17516 18.75 10C18.75 14.8248 14.8248 18.75 10 18.75C5.17516 18.75 1.25 14.8248 1.25 10C1.25 5.17516 5.17516 1.25 10 1.25ZM5.80812 10.4419C5.56391 10.1977 5.56391 9.80219 5.80812 9.55812L8.93312 6.43312C9.05516 6.31109 9.21516 6.25 9.375 6.25C9.53484 6.25 9.69484 6.31109 9.81688 6.43312C10.0611 6.67734 10.0611 7.07281 9.81688 7.31688L7.75875 9.375L13.75 9.375C14.0952 9.375 14.375 9.65453 14.375 10C14.375 10.3455 14.0952 10.625 13.75 10.625L7.75875 10.625L9.81688 12.6831C10.0611 12.9273 10.0611 13.3228 9.81688 13.5669C9.57266 13.8109 9.17719 13.8111 8.93312 13.5669L5.80812 10.4419Z" fill="#4F4F4F"/>
</svg>
