<svg width="17" height="14" viewBox="0 0 17 14" fill="none" xmlns="http://www.w3.org/2000/svg">
<path d="M9.16683 3.375V0.833333C9.16683 0.61232 9.25463 0.400358 9.41091 0.244078C9.56719 0.0877973 9.77915 0 10.0002 0C10.2188 0.000920518 10.4283 0.0877132 10.5835 0.241667L16.4168 6.075C16.4949 6.15247 16.5569 6.24464 16.5992 6.34619C16.6415 6.44774 16.6633 6.55666 16.6633 6.66667C16.6633 6.77668 16.6415 6.8856 16.5992 6.98715C16.5569 7.0887 16.4949 7.18086 16.4168 7.25833L10.5835 13.0917C10.4665 13.2063 10.3183 13.284 10.1575 13.3149C9.99658 13.3458 9.83016 13.3286 9.679 13.2655C9.52784 13.2024 9.39864 13.0961 9.30755 12.9599C9.21645 12.8238 9.16751 12.6638 9.16683 12.5V9.91667H8.4585C7.1419 9.89703 5.8368 10.1641 4.63377 10.6995C3.43075 11.2348 2.35864 12.0255 1.49183 13.0167C1.38737 13.1557 1.24201 13.2586 1.07614 13.3109C0.910256 13.3632 0.732169 13.3623 0.566832 13.3083C0.398578 13.2516 0.25286 13.1425 0.150925 12.9971C0.0489911 12.8517 -0.00382957 12.6775 0.000165383 12.5C0.000165383 4.9 6.7335 3.6 9.16683 3.375ZM8.4585 8.23333C9.01585 8.23225 9.57265 8.26844 10.1252 8.34167C10.3224 8.3716 10.5024 8.47133 10.6324 8.62272C10.7624 8.77411 10.8338 8.96713 10.8335 9.16667V10.4917L14.6502 6.66667L10.8335 2.84167V4.16667C10.8335 4.38768 10.7457 4.59964 10.5894 4.75592C10.4331 4.9122 10.2212 5 10.0002 5C9.24183 5 3.24183 5.16667 1.94183 10.3583C3.82875 8.96713 6.11419 8.22188 8.4585 8.23333Z" fill="#4F4F4F"/>
</svg>
