<svg width="20" height="20" viewBox="0 0 20 20" fill="none" xmlns="http://www.w3.org/2000/svg">
<path d="M6.66667 2.5H4.16667C3.72464 2.5 3.30072 2.67559 2.98816 2.98816C2.67559 3.30072 2.5 3.72464 2.5 4.16667V6.66667" stroke="#D66355" stroke-width="1.66667" stroke-linecap="round" stroke-linejoin="round"/>
<path d="M17.4999 6.66667V4.16667C17.4999 3.72464 17.3243 3.30072 17.0118 2.98816C16.6992 2.67559 16.2753 2.5 15.8333 2.5H13.3333" stroke="#D66355" stroke-width="1.66667" stroke-linecap="round" stroke-linejoin="round"/>
<path d="M2.5 13.333V15.833C2.5 16.275 2.67559 16.699 2.98816 17.0115C3.30072 17.3241 3.72464 17.4997 4.16667 17.4997H6.66667" stroke="#D66355" stroke-width="1.66667" stroke-linecap="round" stroke-linejoin="round"/>
<path d="M13.3335 17.4997H15.8335C16.2755 17.4997 16.6994 17.3241 17.012 17.0115C17.3246 16.699 17.5002 16.275 17.5002 15.833V13.333" stroke="#D66355" stroke-width="1.66667" stroke-linecap="round" stroke-linejoin="round"/>
</svg>
