<svg width="20" height="20" viewBox="0 0 20 20" fill="none" xmlns="http://www.w3.org/2000/svg">
<g clip-path="url(#clip0_2106_25376)">
<path fill-rule="evenodd" clip-rule="evenodd" d="M6.07332 19.627H17.8018C17.8467 19.627 17.8879 19.602 17.9087 19.5622L18.9739 17.5268C18.9923 17.4917 18.9923 17.4499 18.9739 17.4148L17.9087 15.3782C17.8879 15.3384 17.8467 15.3135 17.8017 15.3135H6.07332L4.86523 17.253L6.07332 19.627Z" fill="#FFD772"/>
<path fill-rule="evenodd" clip-rule="evenodd" d="M6.07281 19.6267V15.3132V15.1479C6.07281 15.0334 5.97918 14.9409 5.86473 14.9409H1.22063C1.10617 14.9409 1.01367 15.0334 1.01367 15.1479V19.7921C1.01367 19.9054 1.105 19.999 1.21832 20.0001H1.22063H5.86469H5.86699C5.98027 19.999 6.07277 19.9053 6.07277 19.7921V19.6267H6.07281Z" fill="#F9F7F8"/>
<path fill-rule="evenodd" clip-rule="evenodd" d="M1.22063 12.529H5.86469C5.97914 12.529 6.07277 12.4354 6.07277 12.322V12.1567V7.84199V7.67781C6.07277 7.56336 5.97914 7.46973 5.86469 7.46973H1.22063C1.10617 7.46973 1.01367 7.56336 1.01367 7.67781V12.322C1.01367 12.4353 1.10617 12.529 1.22063 12.529Z" fill="#F9F7F8"/>
<path fill-rule="evenodd" clip-rule="evenodd" d="M6.07332 7.8418L4.78711 9.90859L6.07332 12.1565H17.8017C17.8466 12.1565 17.8878 12.1316 17.9087 12.0918L18.9739 10.0551C18.9923 10.0201 18.9923 9.97828 18.9739 9.9432L17.9087 7.90656C17.8879 7.86676 17.8467 7.8418 17.8017 7.8418H6.07332Z" fill="#75CEF8"/>
<path fill-rule="evenodd" clip-rule="evenodd" d="M6.07332 4.68559H17.8018C17.8467 4.68559 17.8879 4.66062 17.9087 4.62082L18.9739 2.58535C18.9923 2.55031 18.9923 2.50848 18.9739 2.47344L17.9087 0.436836C17.8879 0.397031 17.8467 0.37207 17.8017 0.37207H6.07332L4.94336 2.30445L6.07332 4.68559Z" fill="#EB5468"/>
<path fill-rule="evenodd" clip-rule="evenodd" d="M6.07281 4.68582V0.372266V0.206953C6.07281 0.0925 5.97918 0 5.86473 0H1.22063C1.10617 0 1.01367 0.0925 1.01367 0.206953V4.85113C1.01367 4.96559 1.10617 5.05922 1.22063 5.05922H5.86469C5.97914 5.05922 6.07277 4.96559 6.07277 4.85113V4.68582H6.07281Z" fill="#F9F7F8"/>
<path fill-rule="evenodd" clip-rule="evenodd" d="M4.60457 0.372266V4.68582V4.85113C4.60457 4.96559 4.51094 5.05922 4.39648 5.05922H5.86473C5.97918 5.05922 6.07281 4.96559 6.07281 4.85113V4.68582V0.372266V0.206953C6.07281 0.0925 5.97918 0 5.86473 0H4.39648C4.51094 0 4.60457 0.0925 4.60457 0.206953V0.372266Z" fill="#DDDAEC"/>
<path fill-rule="evenodd" clip-rule="evenodd" d="M5.86473 7.46973H4.39648C4.51094 7.46973 4.60457 7.56336 4.60457 7.67781V7.84199V12.1567V12.322C4.60457 12.4353 4.51094 12.5289 4.39648 12.5289H5.86473C5.97918 12.5289 6.07281 12.4353 6.07281 12.322V12.1567V7.84199V7.67781C6.07281 7.56336 5.97918 7.46973 5.86473 7.46973Z" fill="#DDDAEC"/>
<path fill-rule="evenodd" clip-rule="evenodd" d="M5.86473 14.9409H4.39648C4.51094 14.9409 4.60457 15.0334 4.60457 15.1479V15.3132V19.6267V19.7921C4.60457 19.9054 4.51207 19.999 4.39879 20.0001H5.86473H5.86703C5.98031 19.999 6.07281 19.9053 6.07281 19.7921V19.6267V15.3132V15.1479C6.07281 15.0334 5.97918 14.9409 5.86473 14.9409Z" fill="#DDDAEC"/>
<path fill-rule="evenodd" clip-rule="evenodd" d="M16.0391 0.37207C16.3073 1.11199 16.4576 1.93633 16.4576 2.80574C16.4576 3.46473 16.372 4.09715 16.2136 4.68563H17.8019C17.8468 4.68563 17.888 4.66066 17.9088 4.62086L18.974 2.58539C18.9924 2.55035 18.9924 2.50852 18.974 2.47348L17.9088 0.436875C17.888 0.39707 17.8468 0.372109 17.8018 0.372109H16.0391V0.37207Z" fill="#E5384F"/>
<path fill-rule="evenodd" clip-rule="evenodd" d="M16.0391 7.84184C16.3073 8.58176 16.4576 9.40609 16.4576 10.2766C16.4576 10.9345 16.372 11.5669 16.2136 12.1565H17.8018C17.8468 12.1565 17.888 12.1316 17.9088 12.0918L18.9741 10.0551C18.9924 10.0201 18.9924 9.97828 18.9741 9.9432L17.9088 7.90656C17.888 7.86676 17.8468 7.8418 17.8018 7.8418H16.0391V7.84184Z" fill="#60B7FF"/>
<path fill-rule="evenodd" clip-rule="evenodd" d="M16.0391 15.3135C16.3073 16.0534 16.4576 16.8777 16.4576 17.7471C16.4576 18.405 16.372 19.0386 16.2136 19.627H17.8019C17.8468 19.627 17.888 19.6021 17.9088 19.5623L18.974 17.5268C18.9924 17.4918 18.9924 17.4499 18.974 17.4149L17.9088 15.3783C17.888 15.3385 17.8468 15.3135 17.8018 15.3135H16.0391V15.3135Z" fill="#FBBA58"/>
<path d="M3.78082 3.94123C3.61414 3.94123 3.47902 3.80611 3.47902 3.63943V1.72029H3.3057C3.13902 1.72029 3.00391 1.58518 3.00391 1.4185C3.00391 1.25182 3.13902 1.1167 3.3057 1.1167H3.78086C3.94754 1.1167 4.08266 1.25182 4.08266 1.4185V3.63943C4.08266 3.80611 3.94754 3.94123 3.78082 3.94123Z" fill="#2B4D66"/>
<path d="M3.43348 11.4345C2.99945 11.4345 2.96531 11.4231 2.92504 11.4097C2.82527 11.3757 2.75211 11.3007 2.72254 11.2033C2.67281 11.0396 2.74973 10.939 2.88934 10.7564C3.00184 10.6092 3.21129 10.3353 3.56406 9.83119C3.68254 9.66225 3.73117 9.54205 3.75094 9.46756L3.75656 9.42072C3.74887 9.28096 3.63223 9.16955 3.49 9.16955C3.36285 9.16955 3.25312 9.25943 3.22898 9.38326C3.19715 9.54689 3.03879 9.65377 2.87504 9.62182C2.71145 9.58998 2.60461 9.4315 2.63648 9.26787C2.7157 8.86115 3.07461 8.56592 3.49 8.56592C3.97008 8.56592 4.36062 8.95596 4.36062 9.43541C4.36062 9.44744 4.35988 9.45947 4.35848 9.47143L4.34805 9.55814C4.34672 9.56924 4.34477 9.58021 4.34223 9.59111C4.29965 9.77244 4.20422 9.96979 4.05848 10.1776C3.86109 10.4596 3.70746 10.6714 3.58996 10.8299C3.76453 10.8292 3.9616 10.8275 4.14855 10.8251C4.31547 10.8216 4.45207 10.9563 4.45422 11.123C4.45637 11.2897 4.32297 11.4265 4.15629 11.4287C3.83695 11.4328 3.60422 11.4345 3.43348 11.4345Z" fill="#2B4D66"/>
<path d="M4.41191 16.9014C4.41191 16.4213 4.02188 16.0308 3.54246 16.0308C3.12832 16.0308 2.76902 16.326 2.68809 16.7326C2.65551 16.8961 2.76168 17.055 2.92516 17.0876C3.08879 17.1203 3.24758 17.014 3.28008 16.8505C3.305 16.7253 3.41535 16.6344 3.54246 16.6344C3.68906 16.6344 3.80828 16.7542 3.80828 16.9014C3.80828 17.0486 3.68902 17.1684 3.54246 17.1684C3.37578 17.1684 3.24066 17.3035 3.24066 17.4702C3.24066 17.6369 3.37578 17.772 3.54246 17.772C3.68906 17.772 3.80828 17.8913 3.80828 18.0379C3.80828 18.1851 3.68902 18.3049 3.54246 18.3049C3.40992 18.3049 3.29641 18.2067 3.27871 18.0787C3.27641 18.061 3.27547 18.0491 3.27547 18.0379C3.27547 17.8712 3.14035 17.7361 2.97367 17.7361C2.80699 17.7361 2.67188 17.8712 2.67188 18.0379C2.67188 18.0758 2.67441 18.1124 2.68047 18.1589C2.73949 18.5863 3.11004 18.9085 3.54246 18.9085C4.02188 18.9085 4.41191 18.5179 4.41191 18.0379C4.41191 17.821 4.33188 17.6225 4.20004 17.47C4.33188 17.3173 4.41191 17.1186 4.41191 16.9014Z" fill="#2B4D66"/>
<path d="M9.58891 2.11336H7.72758C7.5609 2.11336 7.42578 1.97824 7.42578 1.81156C7.42578 1.64488 7.5609 1.50977 7.72758 1.50977H9.58891C9.75559 1.50977 9.8907 1.64488 9.8907 1.81156C9.8907 1.97824 9.75559 2.11336 9.58891 2.11336Z" fill="#2B4D66"/>
<path d="M11.5115 3.59578H7.72758C7.5609 3.59578 7.42578 3.46066 7.42578 3.29398C7.42578 3.1273 7.5609 2.99219 7.72758 2.99219H11.5115C11.6782 2.99219 11.8133 3.1273 11.8133 3.29398C11.8133 3.46066 11.6782 3.59578 11.5115 3.59578Z" fill="#2B4D66"/>
<path d="M9.58891 9.53523H7.72758C7.5609 9.53523 7.42578 9.40012 7.42578 9.23344C7.42578 9.06676 7.5609 8.93164 7.72758 8.93164H9.58891C9.75559 8.93164 9.8907 9.06676 9.8907 9.23344C9.89074 9.40008 9.75559 9.53523 9.58891 9.53523Z" fill="#2B4D66"/>
<path d="M11.5115 11.0177H7.72758C7.5609 11.0177 7.42578 10.8825 7.42578 10.7159C7.42578 10.5492 7.5609 10.4141 7.72758 10.4141H11.5115C11.6782 10.4141 11.8133 10.5492 11.8133 10.7159C11.8133 10.8825 11.6782 11.0177 11.5115 11.0177Z" fill="#2B4D66"/>
<path d="M9.58891 17.0523H7.72758C7.5609 17.0523 7.42578 16.9172 7.42578 16.7505C7.42578 16.5838 7.5609 16.4487 7.72758 16.4487H9.58891C9.75559 16.4487 9.8907 16.5838 9.8907 16.7505C9.89074 16.9172 9.75559 17.0523 9.58891 17.0523Z" fill="#2B4D66"/>
<path d="M11.5115 18.5343H7.72758C7.5609 18.5343 7.42578 18.3991 7.42578 18.2325C7.42578 18.0658 7.5609 17.9307 7.72758 17.9307H11.5115C11.6782 17.9307 11.8133 18.0658 11.8133 18.2325C11.8133 18.3991 11.6782 18.5343 11.5115 18.5343Z" fill="#2B4D66"/>
</g>
<defs>
<clipPath id="clip0_2106_25376">
<rect width="20" height="20" fill="white"/>
</clipPath>
</defs>
</svg>
