<svg width="20" height="20" viewBox="0 0 20 20" fill="none" xmlns="http://www.w3.org/2000/svg">
<g clip-path="url(#clip0_2106_25420)">
<path d="M19.9957 18.5816L18.4244 9.92492C18.4088 9.83851 18.3552 9.76367 18.2784 9.72097L14.3236 7.52136C14.2723 7.49276 14.2147 7.4814 14.1582 7.48577L14.8777 16.7674L14.8536 16.7781L19.5866 18.9015C19.6251 18.9187 19.666 18.9272 19.7068 18.9272C19.7713 18.9272 19.8352 18.906 19.8877 18.8649C19.9736 18.7978 20.0151 18.6888 19.9957 18.5816Z" fill="#44C868"/>
<path d="M10.0003 9.62426L5.95559 7.51758C5.90711 7.4923 5.85336 7.48199 5.80043 7.48554C5.81445 7.48469 5.82856 7.48476 5.84254 7.48586L5.12305 16.7674L9.88013 18.9016C9.91853 18.9188 9.9595 18.9273 10.0003 18.9273V9.62426Z" fill="#44C868"/>
<path d="M5.84219 7.48528C5.78567 7.48091 5.72813 7.49228 5.6768 7.52083L1.72199 9.72044C1.64519 9.76314 1.5916 9.83794 1.57594 9.92439L0.00472179 18.5811C-0.0147314 18.6882 0.0268312 18.7973 0.112652 18.8644C0.165269 18.9055 0.229136 18.9267 0.29359 18.9267C0.334332 18.9267 0.375309 18.9182 0.413785 18.901L5.12098 16.7892L5.84219 7.48528Z" fill="#4CE166"/>
<path d="M14.1578 7.48486C14.1189 7.48787 14.0804 7.49822 14.0447 7.51682L10 9.62346V18.9265H10C10.0409 18.9265 10.0819 18.918 10.1202 18.9008L14.8773 16.7666L14.1578 7.48486Z" fill="#4CE166"/>
<path d="M1.10043 12.5483L0.78125 14.3068L5.50759 11.8105L5.61731 10.3949L5.63552 10.1602L1.10043 12.5483Z" fill="#FFDB56"/>
<path d="M5.54946 11.2617L5.50692 11.8106L0.780583 14.307L0.00472179 18.5817C-0.0147314 18.6888 0.0268312 18.7979 0.112652 18.865C0.165269 18.9061 0.229136 18.9273 0.29359 18.9273C0.334332 18.9273 0.375308 18.9188 0.413785 18.9016L5.12098 16.7898L5.54946 11.2617Z" fill="#A8EEFC"/>
<path d="M10.0021 10.7845L5.63574 10.1602L5.50781 11.8105L10.0009 18.6339V16.1527L7.31977 11.9309L10.0021 12.2518V10.7845Z" fill="#FFBB24"/>
<path d="M17.9679 9.54789L16.0681 8.49121L14.2695 8.91145L14.292 9.20192L14.3809 10.3478L17.9679 9.54789Z" fill="#FFBB24"/>
<path d="M14.5399 12.4052L14.3696 10.208L14.2691 8.91113L10.002 10.7843V12.2515L12.7893 11.0394L14.5399 12.4052Z" fill="#FFDB56"/>
<path d="M19.9945 18.5815L19.5999 16.4071L14.3789 10.3477L14.5384 12.4054L19.8927 18.8594C19.9742 18.7919 20.0135 18.686 19.9945 18.5815Z" fill="#FFBB24"/>
<path d="M10.0184 1.07275C7.75418 1.07275 5.91211 2.9133 5.91211 5.17565C5.91211 6.57511 6.57653 8.07761 7.88696 9.64137C8.84942 10.7899 9.7988 11.5286 9.83876 11.5595C9.89165 11.6004 9.95501 11.6209 10.0184 11.6209C10.0818 11.6209 10.1452 11.6004 10.1981 11.5595C10.238 11.5286 11.1874 10.7899 12.1499 9.64137C13.4603 8.07761 14.1247 6.57515 14.1247 5.17565C14.1246 2.9133 12.2826 1.07275 10.0184 1.07275ZM11.5391 5.17561C11.5391 6.01476 10.8582 6.69507 10.0184 6.69507C9.17852 6.69507 8.49766 6.0148 8.49766 5.17561C8.49766 4.33643 9.17852 3.65616 10.0184 3.65616C10.8582 3.65616 11.5391 4.33647 11.5391 5.17561Z" fill="#FF4A4A"/>
<path d="M10.0179 1.07275C9.83848 1.07275 9.66172 1.08439 9.48828 1.10682C11.5032 1.36725 13.0649 3.0926 13.0649 5.17565C13.0649 6.57511 12.4005 8.07761 11.0901 9.64137C10.4711 10.38 9.85805 10.9487 9.48832 11.2691C9.69356 11.4469 9.8241 11.5485 9.83832 11.5595C9.89121 11.6004 9.95457 11.6209 10.018 11.6209C10.0813 11.6209 10.1447 11.6004 10.1976 11.5595C10.2375 11.5286 11.187 10.7899 12.1494 9.64137C13.4599 8.07761 14.1243 6.57515 14.1243 5.17565C14.1242 2.9133 12.2821 1.07275 10.0179 1.07275Z" fill="#E7343F"/>
<path d="M10.1202 18.9011L11.8892 18.1075L10 16.1523V18.9268H10C10.0409 18.9268 10.0818 18.9183 10.1202 18.9011Z" fill="#FFDB56"/>
<path d="M18.4252 9.92496C18.4096 9.83856 18.356 9.76371 18.2792 9.72102L17.9679 9.54785L14.3809 10.3477L19.6018 16.4072L18.4252 9.92496Z" fill="#1EA4E9"/>
<path d="M10.0004 18.9268C10.0004 18.9268 10.0004 18.9268 10.0004 18.9268V18.6335L5.50731 11.8101L5.12305 16.7669L9.88013 18.901C9.91853 18.9183 9.9595 18.9268 10.0004 18.9268Z" fill="#1EA4E9"/>
</g>
<defs>
<clipPath id="clip0_2106_25420">
<rect width="20" height="20" fill="white"/>
</clipPath>
</defs>
</svg>
